<svg width="20" height="24" viewBox="0 0 20 24" fill="none" xmlns="http://www.w3.org/2000/svg">
<path d="M10.0001 23.6666C11.2834 23.6666 12.3334 22.6166 12.3334 21.3333H7.66675C7.66675 22.6166 8.71675 23.6666 10.0001 23.6666ZM17.0001 16.6666V10.8333C17.0001 7.25163 15.0984 4.25329 11.7501 3.45996V2.66663C11.7501 1.69829 10.9684 0.916626 10.0001 0.916626C9.03175 0.916626 8.25008 1.69829 8.25008 2.66663V3.45996C4.91341 4.25329 3.00008 7.23996 3.00008 10.8333V16.6666L0.666748 19V20.1666H19.3334V19L17.0001 16.6666ZM14.6667 17.8333H5.33341V10.8333C5.33341 7.93996 7.09508 5.58329 10.0001 5.58329C12.9051 5.58329 14.6667 7.93996 14.6667 10.8333V17.8333Z" fill="white"/>
</svg>
