<svg width="18" height="18" viewBox="0 0 18 18" fill="none" xmlns="http://www.w3.org/2000/svg">
<path d="M5.83337 13.9998C4.91671 13.9998 4.17504 14.7498 4.17504 15.6665C4.17504 16.5832 4.91671 17.3332 5.83337 17.3332C6.75004 17.3332 7.50004 16.5832 7.50004 15.6665C7.50004 14.7498 6.75004 13.9998 5.83337 13.9998ZM0.833374 1.49984C0.833374 1.95817 1.20837 2.33317 1.66671 2.33317H2.50004L5.50004 8.65817L4.37504 10.6915C3.76671 11.8082 4.56671 13.1665 5.83337 13.1665H15C15.4584 13.1665 15.8334 12.7915 15.8334 12.3332C15.8334 11.8748 15.4584 11.4998 15 11.4998H5.83337L6.75004 9.83317H12.9584C13.5834 9.83317 14.1334 9.4915 14.4167 8.97484L17.4 3.5665C17.7084 3.0165 17.3084 2.33317 16.675 2.33317H4.34171L3.78337 1.1415C3.65004 0.849837 3.35004 0.666504 3.03337 0.666504H1.66671C1.20837 0.666504 0.833374 1.0415 0.833374 1.49984ZM14.1667 13.9998C13.25 13.9998 12.5084 14.7498 12.5084 15.6665C12.5084 16.5832 13.25 17.3332 14.1667 17.3332C15.0834 17.3332 15.8334 16.5832 15.8334 15.6665C15.8334 14.7498 15.0834 13.9998 14.1667 13.9998Z" fill="#A5A6F6"/>
</svg>
